@startuml
title 18. UML - Adapter trong Shipping

skinparam backgroundColor #FFFFFF
skinparam shadowing false
skinparam roundCorner 12
skinparam class {
  BackgroundColor #FFFFFF
  BorderColor #000000
  ArrowColor #000000
  FontColor #000000
  FontSize 14
  FontStyle bold
}

class ShippingFeeCalculator {
}

class GhnShippingAdapter <<Adapter>> {
}

class GhtkShippingAdapter <<Adapter>> {
}

class GhnApiClient <<Adaptee>> {
}

class GhtkApiSdk <<Adaptee>> {
}

ShippingFeeCalculator --> GhnShippingAdapter
ShippingFeeCalculator --> GhtkShippingAdapter
GhnShippingAdapter --> GhnApiClient
GhtkShippingAdapter --> GhtkApiSdk

@enduml
